<svg width="23" height="25" viewBox="0 0 23 25" fill="none" xmlns="http://www.w3.org/2000/svg">
<path d="M1 11.3259C1 10.6558 1 10.3208 1.08637 10.0122C1.16287 9.73891 1.28859 9.48185 1.45736 9.25367C1.64789 8.99606 1.91236 8.79037 2.44129 8.37898L10.354 2.22467C10.7639 1.90587 10.9688 1.74647 11.1951 1.6852C11.3948 1.63114 11.6052 1.63114 11.8049 1.6852C12.0312 1.74647 12.2361 1.90587 12.646 2.22467L20.5587 8.37898C21.0876 8.79037 21.3521 8.99606 21.5426 9.25367C21.7114 9.48185 21.8371 9.73891 21.9136 10.0122C22 10.3208 22 10.6558 22 11.3259V19.7666C22 21.0734 22 21.7268 21.7457 22.226C21.522 22.665 21.165 23.022 20.726 23.2457C20.2269 23.5 19.5735 23.5 18.2667 23.5H4.73333C3.42654 23.5 2.77315 23.5 2.27402 23.2457C1.83498 23.022 1.47802 22.665 1.25432 22.226C1 21.7268 1 21.0734 1 19.7666V11.3259Z" stroke="#E0783E" stroke-width="2" stroke-linecap="round" stroke-linejoin="round"/>
</svg>
